<svg xmlns="http://www.w3.org/2000/svg" viewBox="0 0 14 12" width="56" height="48" shape-rendering="crispEdges">
  <!-- Byte (dog) sitting — compact, for inline use -->

  <!-- Ears -->
  <rect x="1" y="1" width="2" height="2" fill="#e56a00"/>
  <rect x="11" y="1" width="2" height="2" fill="#e56a00"/>

  <!-- Head -->
  <rect x="3" y="0" width="8" height="6" fill="#ff7700"/>

  <!-- Eyes -->
  <rect x="4" y="2" width="2" height="2" fill="#1f2937"/>
  <rect x="8" y="2" width="2" height="2" fill="#1f2937"/>
  <rect x="4" y="2" width="1" height="1" fill="white"/>
  <rect x="8" y="2" width="1" height="1" fill="white"/>

  <!-- Nose -->
  <rect x="6" y="4" width="2" height="1" fill="#cc5e00"/>

  <!-- Tongue -->
  <rect x="7" y="5" width="1" height="1" fill="#ff6b6b"/>

  <!-- Body (sitting) -->
  <rect x="3" y="6" width="8" height="3" fill="#ff7700"/>

  <!-- Tail — wagging! Two frames alternating -->
  <!-- Frame 1: tail up -->
  <g>
    <rect x="11" y="6" width="1" height="1" fill="#ff9632"/>
    <rect x="12" y="5" width="1" height="1" fill="#ff9632"/>
    <rect x="13" y="4" width="1" height="1" fill="#ff9632"/>
    <animate attributeName="opacity" values="1;0;1;0;1" dur="0.6s" repeatCount="indefinite"/>
  </g>
  <!-- Frame 2: tail out -->
  <g opacity="0">
    <rect x="11" y="6" width="1" height="1" fill="#ff9632"/>
    <rect x="12" y="6" width="1" height="1" fill="#ff9632"/>
    <rect x="13" y="5" width="1" height="1" fill="#ff9632"/>
    <animate attributeName="opacity" values="0;1;0;1;0" dur="0.6s" repeatCount="indefinite"/>
  </g>

  <!-- Front paws -->
  <rect x="3" y="9" width="2" height="1" fill="#e56a00"/>
  <rect x="9" y="9" width="2" height="1" fill="#e56a00"/>
  <!-- Paw bottoms -->
  <rect x="2" y="10" width="3" height="1" fill="#cc5e00"/>
  <rect x="9" y="10" width="3" height="1" fill="#cc5e00"/>

  <!-- Animated blink -->
  <rect x="4" y="2" width="2" height="1" fill="#ff7700" opacity="0">
    <animate attributeName="opacity" values="0;0;0;0;0;0;0;0;0;1;0" dur="4s" repeatCount="indefinite"/>
  </rect>
  <rect x="8" y="2" width="2" height="1" fill="#ff7700" opacity="0">
    <animate attributeName="opacity" values="0;0;0;0;0;0;0;0;0;1;0" dur="4s" repeatCount="indefinite"/>
  </rect>
</svg>
